<?xml version="1.0" encoding="iso-8859-1"?>
<!-- Uploaded to: SVG Repo, www.svgrepo.com, Generator: SVG Repo Mixer Tools -->
<svg fill="#FFFFFF" height="500px" width="500px" version="1.1" id="Layer_1" xmlns="http://www.w3.org/2000/svg" xmlns:xlink="http://www.w3.org/1999/xlink"
	 viewBox="0 0 512 512" xml:space="preserve">
<g>
	<g>
		<circle cx="399.055" cy="138.626" r="16.574"/>
	</g>
</g>
<g>
	<g>
		<circle cx="454.246" cy="138.626" r="16.574"/>
	</g>
</g>
<g>
	<g>
		<path d="M337.805,252.53H174.195c-4.681,0-8.474,3.794-8.474,8.473c0,4.68,3.793,8.474,8.474,8.474h163.609
			c4.681,0,8.473-3.794,8.473-8.474C346.278,256.324,342.485,252.53,337.805,252.53z"/>
	</g>
</g>
<g>
	<g>
		<path d="M337.805,303.365H174.195c-4.681,0-8.474,3.794-8.474,8.473s3.793,8.473,8.474,8.473h163.609
			c4.681,0,8.473-3.794,8.473-8.473S342.485,303.365,337.805,303.365z"/>
	</g>
</g>
<g>
	<g>
		<path d="M337.805,354.203H174.195c-4.681,0-8.474,3.794-8.474,8.473s3.793,8.473,8.474,8.473h163.609
			c4.681,0,8.473-3.794,8.473-8.473S342.485,354.203,337.805,354.203z"/>
	</g>
</g>
<g>
	<g>
		<path d="M446.431,40.925H141.978c-4.681,0-8.474,3.794-8.474,8.474c0,4.68,3.793,8.473,8.474,8.473h304.453
			c26.81,0,48.622,21.812,48.622,48.623v95.199H379.624v-21.074c0-4.68-3.793-8.474-8.474-8.474H140.849
			c-4.681,0-8.474,3.794-8.474,8.474v21.074H16.947v-95.199c0-26.81,21.812-48.623,48.622-48.623h42.515
			c4.681,0,8.474-3.794,8.474-8.473c0-4.68-3.793-8.474-8.474-8.474H65.569C29.414,40.925,0,70.34,0,106.495v103.672V311.84
			c0,4.68,3.793,8.473,8.474,8.473h123.902v142.289c0,4.68,3.793,8.473,8.474,8.473h41.799c4.681,0,8.473-3.794,8.473-8.473
			s-3.793-8.474-8.473-8.474h-33.326V189.092h213.354v265.036H216.542c-4.681,0-8.473,3.794-8.473,8.474s3.793,8.473,8.473,8.473
			h154.608c4.681,0,8.474-3.794,8.474-8.473V320.312h46.54c4.681,0,8.474-3.794,8.474-8.473s-3.793-8.473-8.474-8.473h-46.54
			v-84.726h115.429v84.726h-34.995c-4.681,0-8.474,3.794-8.474,8.473s3.793,8.473,8.474,8.473h43.469
			c4.681,0,8.473-3.794,8.473-8.473V210.166V106.495C512,70.34,482.586,40.925,446.431,40.925z M132.376,303.365H16.947v-84.726
			h115.429V303.365z"/>
	</g>
</g>
</svg>